<?xml version="1.0" standalone="no"?>
<!DOCTYPE svg PUBLIC "-//W3C//DTD SVG 20010904//EN"
 "http://www.w3.org/TR/2001/REC-SVG-20010904/DTD/svg10.dtd">
<svg version="1.0" xmlns="http://www.w3.org/2000/svg"
 width="776.000000pt" height="776.000000pt" viewBox="0 0 776.000000 776.000000"
 preserveAspectRatio="xMidYMid meet">
<metadata>
Created by potrace 1.14, written by Peter Selinger 2001-2017
</metadata>
<g transform="translate(0.000000,776.000000) scale(0.100000,-0.100000)"
fill="#000000" stroke="none">
<path d="M7337 6983 c-2 -1 -21 -4 -42 -7 -22 -2 -40 -5 -40 -6 0 -1 -13 -4
-28 -6 -15 -3 -69 -16 -120 -30 -51 -14 -99 -26 -107 -28 -8 -1 -24 -7 -35
-13 -11 -6 -45 -18 -75 -28 -30 -10 -67 -24 -82 -32 -15 -7 -30 -13 -33 -13
-3 0 -50 -23 -104 -50 -55 -28 -105 -50 -111 -50 -5 0 -10 -4 -10 -9 0 -5 -9
-12 -19 -16 -11 -3 -37 -17 -57 -32 -21 -14 -43 -26 -49 -27 -23 -4 -291 -189
-349 -241 -6 -6 -36 -30 -66 -55 -93 -76 -109 -91 -229 -211 -175 -174 -271
-285 -409 -469 -35 -47 -70 -93 -78 -103 -8 -9 -14 -19 -14 -21 0 -2 -29 -47
-65 -99 -36 -52 -65 -98 -65 -102 0 -3 -5 -11 -10 -18 -38 -44 -171 -277 -251
-437 -76 -152 -123 -267 -185 -450 -23 -69 -59 -170 -79 -225 -26 -72 -37
-119 -38 -167 -2 -37 -6 -71 -11 -75 -11 -11 -38 28 -33 48 2 9 -4 27 -14 40
-15 21 -25 24 -73 22 -36 -1 -56 2 -56 9 0 7 -6 3 -14 -7 -25 -35 -52 -28 -93
22 -68 84 -154 163 -239 221 -72 48 -138 86 -212 124 -48 24 -88 46 -90 51 -2
4 -10 7 -19 7 -8 0 -39 13 -69 30 -30 16 -54 27 -54 23 0 -3 -9 2 -21 13 -12
10 -22 18 -23 16 -5 -13 -67 28 -113 76 l-55 57 29 -54 c18 -34 41 -62 61 -73
18 -10 32 -14 32 -10 0 4 4 2 8 -4 4 -6 48 -30 97 -54 223 -105 260 -124 266
-132 3 -6 9 -8 12 -6 3 1 56 -31 118 -72 100 -67 299 -245 299 -268 0 -5 -15
-16 -34 -24 -47 -23 -59 -63 -35 -114 22 -47 23 -54 6 -54 -12 0 -131 93 -175
137 -7 7 -34 25 -60 40 -26 15 -92 57 -147 94 -55 37 -131 84 -170 104 -38 21
-77 43 -85 49 -16 13 -18 14 -165 76 -55 24 -136 60 -180 81 -44 21 -116 48
-160 59 -44 12 -89 28 -100 34 -21 13 -116 43 -225 71 -36 9 -67 20 -70 24 -3
4 -34 15 -70 25 -36 10 -86 25 -112 33 -26 8 -52 12 -58 8 -5 -3 -10 -1 -10 4
0 6 -10 11 -22 10 -13 0 -43 5 -68 11 -25 5 -63 13 -85 16 -21 3 -43 8 -47 10
-4 3 -29 7 -55 9 -27 3 -59 7 -73 10 -34 8 -81 13 -175 20 -44 3 -93 8 -110
11 -40 9 -380 9 -480 1 -143 -11 -200 -17 -225 -23 -14 -4 -44 -8 -67 -9 -24
-2 -46 -6 -51 -8 -4 -3 -27 -8 -52 -12 -25 -4 -49 -9 -54 -13 -6 -3 -24 -7
-41 -9 -26 -2 -51 -8 -90 -19 -5 -2 -33 -9 -60 -17 -28 -8 -61 -20 -74 -26
-12 -7 -25 -10 -28 -8 -3 3 -26 -3 -51 -14 -26 -11 -90 -36 -142 -56 -52 -19
-124 -52 -160 -73 -78 -46 -209 -175 -231 -227 -21 -52 -23 -130 -4 -175 8
-21 15 -40 15 -43 -1 -10 33 -70 42 -76 5 -3 9 -10 7 -14 -3 -10 101 -145 112
-145 5 0 9 -6 9 -14 0 -8 14 -26 30 -39 17 -14 30 -29 30 -32 0 -11 223 -230
232 -227 4 1 8 -2 8 -8 0 -10 42 -53 106 -108 22 -19 60 -53 86 -78 26 -24 49
-44 52 -44 3 0 14 -8 24 -17 38 -37 92 -82 241 -202 150 -121 283 -211 386
-262 28 -13 53 -28 56 -32 3 -5 8 -7 10 -6 2 2 24 -5 49 -16 25 -10 48 -19 53
-21 4 -1 9 -3 12 -4 3 -1 8 -3 13 -4 4 -1 17 -5 30 -10 12 -4 34 -9 50 -11 15
-2 27 -4 27 -5 0 -1 9 -3 20 -6 82 -18 236 -26 252 -12 7 6 14 5 18 -2 3 -6
11 -8 16 -5 5 4 35 9 67 11 l57 6 -24 -26 c-14 -14 -19 -26 -13 -26 9 0 8 -7
-3 -23 -37 -57 -69 -245 -53 -307 3 -8 8 -31 12 -50 5 -19 13 -41 19 -48 14
-18 19 -70 7 -77 -13 -8 -42 -76 -35 -83 3 -3 0 -11 -6 -19 -18 -21 -36 -113
-32 -168 3 -48 10 -75 39 -141 21 -48 111 -124 197 -167 77 -39 80 -42 91
-107 8 -49 33 -96 67 -124 19 -15 42 -34 51 -41 40 -33 176 -60 206 -41 8 5
17 -5 28 -31 37 -94 50 -116 86 -149 52 -47 118 -74 192 -79 50 -4 62 -8 80
-32 71 -95 149 -142 245 -150 31 -2 64 -6 74 -8 9 -2 17 1 17 7 0 5 4 7 8 4 5
-3 32 1 60 9 29 7 52 10 52 7 0 -4 4 -2 8 3 17 24 64 46 84 39 105 -33 234 16
359 137 58 55 159 181 159 197 0 5 9 17 20 27 11 10 20 24 20 30 0 7 7 16 16
19 9 4 14 9 11 13 -4 3 2 18 13 32 10 15 22 39 25 54 4 15 12 27 18 27 6 0 7
3 4 7 -4 3 2 20 12 37 26 42 103 242 99 256 -1 3 5 16 12 30 8 14 15 35 16 48
2 13 7 29 13 36 5 6 12 23 14 36 3 14 15 61 27 105 12 44 23 88 25 98 2 10 7
28 11 39 3 11 8 35 10 52 6 39 9 60 19 116 4 25 9 65 10 90 2 25 6 70 11 100
4 30 8 137 8 237 1 101 3 183 6 183 3 0 22 -30 43 -66 99 -169 202 -254 307
-254 41 0 92 62 113 135 17 61 18 238 3 313 -9 40 4 41 28 2 44 -75 258 -307
404 -439 132 -119 394 -307 532 -382 25 -13 47 -26 50 -29 7 -7 155 -80 162
-80 4 0 28 -10 55 -22 26 -11 53 -23 58 -24 108 -34 186 -57 208 -60 16 -2 33
-6 38 -9 5 -3 56 -8 114 -11 162 -8 265 25 323 105 17 23 36 37 52 38 117 8
252 105 306 219 21 45 27 71 26 128 0 65 12 115 25 102 9 -8 70 64 93 111 31
63 31 176 0 258 -10 27 -9 32 11 45 32 21 69 59 69 70 0 6 6 10 14 10 11 0 25
26 26 48 0 1 7 16 15 32 9 17 13 35 10 40 -3 6 -1 10 5 10 6 0 9 4 6 8 -3 5
-6 26 -7 48 -2 34 -29 112 -59 166 -6 11 -5 20 5 28 8 6 28 41 44 77 39 81 48
167 25 238 -19 60 -46 115 -56 115 -5 0 -8 5 -8 10 0 31 -136 129 -213 154 -9
3 -20 14 -24 23 -4 10 -10 20 -14 23 -4 3 -9 20 -12 38 -3 19 -12 41 -19 50
-8 10 -20 30 -28 45 -20 40 -122 132 -186 169 -30 16 -51 34 -48 39 3 5 2 9
-3 8 -4 -1 -19 -1 -33 0 -25 1 -25 1 6 20 18 11 33 23 35 28 2 4 24 19 49 32
59 32 159 122 210 190 14 19 36 48 50 65 14 17 31 42 38 55 8 13 22 39 33 57
16 29 79 171 78 177 0 1 5 16 12 32 7 17 13 33 14 38 2 4 4 9 5 12 1 3 4 10 5
15 1 6 3 11 4 13 2 1 5 13 8 27 7 39 11 55 13 55 1 0 4 11 14 60 1 6 5 16 9
23 5 6 6 12 3 12 -2 0 2 24 10 53 8 28 17 70 20 92 2 22 7 47 11 55 3 8 7 29
9 45 5 35 12 70 14 70 1 0 3 16 5 35 8 60 12 84 18 100 4 8 9 33 11 55 3 22 7
51 10 65 3 14 8 43 11 65 4 22 10 67 16 100 5 33 11 85 13 115 3 30 8 69 11
85 4 17 9 112 11 212 5 186 -10 335 -39 386 -52 94 -124 143 -222 153 -64 6
-145 10 -148 7z"/>
<path d="M4700 5164 c-7 -20 -12 -56 -12 -80 1 -31 -10 -67 -35 -122 -20 -42
-37 -79 -38 -82 0 -3 -14 -30 -30 -60 -40 -76 -65 -130 -59 -130 2 0 -2 -10
-10 -22 -26 -41 -86 -213 -101 -293 -24 -127 -34 -275 -18 -275 5 0 10 30 11
68 2 59 8 107 12 107 1 0 3 14 5 30 6 47 45 186 66 232 11 24 19 49 19 56 0 7
4 17 8 23 5 5 21 41 37 79 16 39 34 73 39 77 6 4 8 8 4 8 -4 0 8 29 27 64 19
34 32 66 28 70 -3 3 -1 6 5 6 7 0 12 5 12 12 0 6 11 34 24 62 27 55 53 142 51
166 -1 8 -3 21 -3 28 -4 26 -31 10 -42 -24z"/>
</g>
</svg>
